<svg width="1775" height="369" viewBox="0 0 1775 369" fill="none" xmlns="http://www.w3.org/2000/svg">
<path d="M959.794 221.381C957.651 221.381 955.825 221.005 954.315 220.256C952.804 219.507 951.588 218.532 950.667 217.332C949.746 216.132 949.071 214.831 948.643 213.427C948.214 212.024 948 210.669 948 209.362V208.655C948 207.241 948.22 205.827 948.658 204.413C949.098 203 949.778 201.714 950.7 200.557C951.62 199.4 952.821 198.469 954.299 197.761C955.777 197.054 957.544 196.701 959.601 196.701C961.7 196.701 963.5 197.065 965 197.794C966.499 198.522 967.688 199.54 968.566 200.846C969.445 202.153 969.98 203.696 970.173 205.474H966.96C966.789 204.146 966.36 203.048 965.674 202.18C964.989 201.312 964.126 200.665 963.087 200.236C962.049 199.807 960.886 199.594 959.601 199.594C958.208 199.594 956.987 199.834 955.938 200.316C954.887 200.798 954.014 201.473 953.319 202.341C952.622 203.208 952.097 204.21 951.744 205.345C951.39 206.481 951.214 207.713 951.214 209.041C951.214 210.305 951.39 211.505 951.744 212.64C952.097 213.776 952.633 214.782 953.351 215.66C954.068 216.54 954.962 217.23 956.034 217.733C957.104 218.238 958.358 218.489 959.794 218.489C961.807 218.489 963.5 217.986 964.871 216.978C966.242 215.971 967.077 214.515 967.378 212.608H970.591C970.377 214.214 969.836 215.682 968.968 217.01C968.101 218.339 966.901 219.4 965.369 220.192C963.837 220.984 961.979 221.381 959.794 221.381Z" fill="#E8D4A1"/>
<path d="M991.637 214.376L992.697 211.547H1002.82L1003.88 214.376H991.637ZM986.591 221.381L995.043 197.922H1000.38L1009.09 221.381H1005.84L997.967 199.978L999.51 200.75H995.718L997.357 199.978L989.74 221.381H986.591Z" fill="#E8D4A1"/>
<path d="M1027.59 213.218V210.455H1032.83C1033.94 210.455 1034.87 210.235 1035.59 209.796C1036.32 209.357 1036.87 208.762 1037.25 208.013C1037.62 207.262 1037.81 206.427 1037.81 205.506C1037.81 204.563 1037.62 203.717 1037.25 202.967C1036.87 202.217 1036.32 201.629 1035.59 201.2C1034.87 200.772 1033.94 200.557 1032.83 200.557H1027.59V197.794H1032.25C1034.18 197.794 1035.79 198.099 1037.09 198.709C1038.38 199.32 1039.36 200.182 1040.03 201.296C1040.69 202.411 1041.02 203.728 1041.02 205.249V205.763C1041.02 207.262 1040.69 208.575 1040.03 209.7C1039.36 210.824 1038.38 211.692 1037.09 212.303C1035.79 212.913 1034.18 213.218 1032.25 213.218H1027.59ZM1025.09 197.794H1028.23V221.381H1025.09V197.794Z" fill="#E8D4A1"/>
<path d="M1057.02 197.922H1060.17V221.381H1057.02V197.922Z" fill="#E8D4A1"/>
<path d="M1083.31 200.107H1086.46V221.381H1083.31V200.107ZM1076.17 197.922H1093.59V200.75H1076.17V197.922Z" fill="#E8D4A1"/>
<path d="M1114.64 214.376L1115.7 211.547H1125.82L1126.88 214.376H1114.64ZM1109.59 221.381L1118.04 197.922H1123.38L1132.09 221.381H1128.84L1120.97 199.978L1122.51 200.75H1118.72L1120.36 199.978L1112.74 221.381H1109.59Z" fill="#E8D4A1"/>
<path d="M1150.59 218.553H1161.32V221.381H1150.59V218.553ZM1148.09 197.922H1151.23V221.381H1148.09V197.922Z" fill="#E8D4A1"/>
<path d="M322.707 366.128V363.436C340.321 361.724 343.257 359.767 343.257 346.312V214.202C343.257 200.746 340.321 198.788 322.707 197.076V194.384H392.677V197.076C375.063 198.788 372.125 200.746 372.125 214.202V345.088C372.125 358.299 378.976 361.724 395.124 361.724H408.089C426.683 361.724 443.073 349.982 455.552 314.996H457.999L449.679 366.128H322.707Z" fill="#F7F7F7"/>
<path d="M477.811 200.99C477.811 191.449 485.149 183.621 495.18 183.621C505.455 183.621 512.795 191.449 512.795 200.99C512.795 210.288 505.455 218.116 495.18 218.116C485.149 218.116 477.811 210.288 477.811 200.99ZM509.615 352.184C509.615 361.725 514.507 362.704 526.74 363.437V366.129H465.333V363.437C477.565 362.704 482.215 361.725 482.215 352.184V258.482L466.067 249.185V248.208L508.636 235.485H509.615V352.184Z" fill="#F7F7F7"/>
<path d="M633.404 305.455C633.404 274.874 621.906 251.387 596.217 251.387C586.676 251.387 577.624 255.303 571.508 261.663V332.367C571.508 353.651 581.294 364.906 595.728 364.906C618.725 364.906 633.404 338.727 633.404 305.455ZM527.961 188.268V187.29L570.53 174.568H571.508V259.462C580.316 246.739 594.75 235.484 613.832 235.484C643.434 235.484 661.049 258.972 661.049 294.446C661.049 335.792 632.916 368.575 594.994 368.575C577.869 368.575 557.074 364.171 544.106 353.162V197.564L527.961 188.268Z" fill="#F7F7F7"/>
<path d="M700.432 282.458H755.724C755.724 258.483 748.628 239.4 730.769 239.4C713.644 239.4 702.633 258.972 700.432 282.458ZM732.237 368.575C697.741 368.575 675.723 341.174 675.723 305.455C675.723 265.822 701.656 235.484 733.949 235.484C764.531 235.484 780.921 257.015 780.921 284.659V286.618H700.188V290.532C700.188 327.228 717.803 349.003 743.736 349.003C760.127 349.003 773.093 341.663 781.656 328.452L782.635 328.942C777.008 351.694 758.171 368.575 732.237 368.575Z" fill="#F7F7F7"/>
<path d="M868.012 235.485C872.416 235.485 876.086 236.954 877.798 238.666V261.664H873.884C858.716 261.664 845.016 263.376 834.494 275.12V351.938C834.494 361.48 840.612 361.969 856.76 363.437V366.128H790.213V363.437C802.446 362.704 807.094 361.725 807.094 352.182V258.482L790.948 249.185V248.208L834.494 235.485H835.474L834.494 272.917C844.526 249.185 853.333 235.485 868.012 235.485Z" fill="#F7F7F7"/>
<path d="M926.232 240.378H960.239V248.208H926.232V328.697C926.232 345.333 933.327 352.673 946.294 352.673C953.144 352.673 959.75 350.961 965.62 346.557L966.355 347.534C959.994 357.566 948.006 368.574 931.614 368.574C913.022 368.574 899.076 358.056 899.076 331.877V248.208H883.174V246.494C898.342 238.91 915.711 224.232 925.008 208.573H926.232V240.378Z" fill="#F7F7F7"/>
<path d="M1042.68 344.844V292.734L1017.48 303.254C1005.74 308.147 998.398 315.731 998.398 329.675C998.398 344.11 1006.96 353.895 1020.42 353.895C1028 353.895 1035.83 351.694 1042.68 344.844ZM1070.08 341.663C1070.08 350.715 1074.24 354.63 1081.33 354.63C1084.76 354.63 1087.94 353.895 1090.63 352.427L1091.12 353.407C1085 362.704 1075.71 368.086 1065.43 368.086C1052.95 368.086 1044.64 359.767 1042.92 347.046C1034.85 357.076 1021.39 368.086 1004.51 368.086C986.41 368.086 972.465 355.854 972.465 337.75C972.465 319.155 987.633 308.88 1007.94 301.786L1042.68 289.552V268.024C1042.68 251.387 1037.05 239.155 1022.37 239.155C1009.65 239.155 1003.78 249.43 1003.78 263.375C1003.78 268.268 1004.27 273.65 1005.98 278.299L989.592 280.5C983.964 279.034 979.316 273.162 979.316 265.822C979.316 247.228 1001.33 235.484 1026.04 235.484C1054.91 235.484 1070.08 247.228 1070.08 274.14V341.663Z" fill="#F7F7F7"/>
<path d="M1121.94 296.403C1121.94 326.984 1134.42 352.428 1160.35 352.428C1170.14 352.428 1177.72 349.003 1183.84 342.643V271.694C1183.84 250.41 1174.05 239.155 1159.13 239.155C1135.89 239.155 1121.94 263.375 1121.94 296.403ZM1183.1 368.575L1183.84 344.844C1175.28 357.566 1162.8 368.575 1143.47 368.575C1114.6 368.575 1094.3 342.886 1094.3 308.636C1094.3 266.067 1121.21 235.484 1159.13 235.484C1167.94 235.484 1177.97 238.422 1183.84 243.07V197.564L1167.69 188.268V187.29L1210.26 174.568H1211.24V345.578C1211.24 354.384 1212.22 356.342 1228.36 357.566V359.767L1184.08 368.575H1183.1Z" fill="#F7F7F7"/>
<path d="M254.133 221.511V239.544C232.441 231.471 174.558 211.657 153.805 203.794C118.601 190.454 83.535 176.737 48.2092 163.731C40.189 160.778 34.9459 156.682 32.1355 148.457C25.3371 128.554 17.0395 109.122 12.7847 86.0861C46.2698 103.013 77.7557 118.89 109.205 134.837L245.3 206.845C250.734 209.719 254.133 215.364 254.133 221.511Z" fill="#E8D4A1"/>
<path d="M254.133 269.988V286.556C219.456 277.836 154.405 262.309 120.004 253.944C90.7188 246.825 73.8342 232.896 61.5738 208.284C56.7375 198.576 49.823 187.634 45.939 176.561C59.353 181.303 70.4623 185.342 81.7103 189.147L254.133 250.965V269.988Z" fill="#E8D4A1"/>
<path d="M254.132 296.485C254.132 296.485 223.466 289.729 219.608 288.771C180.408 279.042 141.181 269.423 101.96 259.774L96.8862 258.501C113.928 280.619 136.331 306.2 161.784 316.565C185.502 326.224 227.332 334.262 254.132 338.849V296.485Z" fill="#E8D4A1"/>
<path d="M254.132 347.4C235.28 342.772 204.32 338.78 185.153 335.428C207.18 350.275 226.541 358.262 254.132 365.015V347.4Z" fill="#E8D4A1"/>
<path d="M68.8017 44.5304C46.4484 30.0026 24.0405 15.5562 0 -1.02782e-06C1.85666 23.8044 5.56063 45.0066 9.91684 66.1207C10.6704 69.7766 13.6808 70.9957 16.4018 72.4416C85.2275 108.973 154.005 145.594 223.019 181.766C227.236 183.976 244.545 192.879 255.996 198.764C262.41 202.061 266.412 208.684 266.353 215.895L266.086 248.849L266.937 364.505C266.952 366.448 268.456 368.057 270.392 368.218C280.286 369.037 283.791 368.556 289.422 368.601C291.439 368.617 293.173 367.02 293.186 365.004C293.186 364.993 293.186 364.982 293.186 364.972V208.019V190.239" fill="#E8D4A1"/>
<rect x="1303.36" y="158.701" width="2" height="210" fill="white"/>
<path d="M1386.66 170.117C1383.2 166.653 1380.36 163.534 1380.36 163.189C1380.36 162.631 1387.22 162.56 1439.56 162.56C1478.19 162.56 1499.05 162.706 1499.6 162.979C1500.06 163.21 1500.53 163.92 1500.64 164.554C1500.76 165.188 1501.14 169.109 1501.5 173.265C1501.86 177.422 1502.62 186.394 1503.19 193.208C1503.76 200.018 1504.27 206.235 1504.33 207.016C1504.39 207.986 1504.22 208.503 1503.8 208.629C1503.4 208.746 1497.82 203.473 1488.47 194.123C1480.39 186.045 1471.89 177.623 1469.58 175.407C1467.27 173.19 1464.72 171.049 1463.91 170.641C1462.61 169.995 1461.04 169.907 1438.74 169.907L1436.41 172.233L1436.31 205.811C1436.25 224.28 1436.34 239.39 1436.52 239.394C1436.69 239.394 1440.42 238.252 1444.81 236.85C1449.2 235.452 1456.38 233.172 1460.76 231.787C1465.15 230.401 1469.5 229.008 1470.42 228.693C1471.34 228.374 1474.32 227.442 1477.03 226.614C1479.74 225.792 1482.15 225.208 1482.38 225.326C1482.65 225.456 1482.8 229.524 1482.8 246.947L1460.24 246.998C1447.83 247.023 1437.39 247.069 1437.04 247.103C1436.49 247.149 1436.4 251.322 1436.29 281.374C1436.21 304.213 1436.31 316.116 1436.61 317.165C1436.91 318.257 1437.43 318.933 1438.3 319.37C1439.32 319.878 1441.59 319.999 1450.16 320.008C1457.19 320.012 1461.26 319.848 1462.23 319.521C1463.04 319.248 1464.18 318.669 1464.75 318.228C1465.33 317.791 1475.49 307.807 1487.35 296.043C1499.19 284.279 1509.16 274.657 1509.49 274.657C1509.82 274.657 1510.09 274.988 1510.09 275.391C1510.09 275.794 1509.44 284.724 1508.64 295.229C1507.84 305.733 1507.08 315.935 1506.95 317.9C1506.82 319.865 1506.6 322.413 1506.45 323.568C1506.28 324.953 1505.86 325.986 1504.25 327.557H1442.31C1383.59 327.557 1380.36 327.519 1380.38 326.822C1380.39 326.419 1383.21 323.253 1386.64 319.789C1390.36 316.032 1393.15 312.858 1393.55 311.917C1394.15 310.498 1394.22 303.815 1394.22 244.848C1394.22 187.565 1394.14 179.168 1393.59 177.884C1393.24 177.069 1390.16 173.614 1386.66 170.117Z" fill="white"/>
<path d="M1710.8 169.487C1707.55 166.254 1704.9 163.374 1704.9 163.084C1704.9 162.669 1712.19 162.56 1739.96 162.56C1767.73 162.56 1775.01 162.669 1775 163.084C1774.99 163.374 1772.08 166.535 1768.52 170.117C1764.58 174.088 1761.8 177.237 1761.4 178.199C1760.81 179.605 1760.74 186.667 1760.74 244.848C1760.74 301.762 1760.82 310.108 1761.37 311.393C1761.72 312.203 1764.93 315.982 1768.51 319.789C1772.08 323.597 1774.92 326.906 1774.8 327.137C1774.66 327.41 1762.56 327.557 1739.75 327.557C1709.05 327.557 1704.9 327.481 1704.9 326.927C1704.9 326.582 1707.7 323.417 1711.13 319.894C1714.56 316.372 1717.73 312.833 1718.17 312.022C1718.94 310.599 1718.96 308.567 1718.96 179.143L1717.84 177.254C1717.22 176.213 1714.05 172.72 1710.8 169.487Z" fill="white"/>
<path fill-rule="evenodd" clip-rule="evenodd" d="M1591.75 159.839C1593.83 159.482 1597.61 159.02 1600.15 158.81C1602.69 158.6 1607.32 158.516 1610.44 158.63C1613.55 158.739 1617.8 159.012 1619.88 159.243C1621.96 159.469 1625.55 160.032 1627.86 160.498C1630.17 160.96 1634.7 162.182 1637.93 163.21C1641.17 164.239 1646.46 166.367 1649.69 167.942C1652.92 169.516 1657.27 171.943 1659.35 173.333C1661.42 174.722 1664.83 177.275 1666.9 179C1668.98 180.73 1672.19 183.753 1674.04 185.726C1675.89 187.7 1678.85 191.369 1680.63 193.884C1682.4 196.399 1684.94 200.534 1686.27 203.074C1687.6 205.614 1689.38 209.485 1690.24 211.681C1691.09 213.872 1692.28 217.462 1692.88 219.658C1693.48 221.849 1694.35 225.913 1694.83 228.684C1695.3 231.455 1695.8 236.556 1695.94 240.02C1696.1 243.828 1695.99 248.392 1695.69 251.566C1695.41 254.45 1694.74 258.988 1694.2 261.642C1693.66 264.295 1692.47 268.737 1691.54 271.508C1690.62 274.279 1688.92 278.532 1687.78 280.954C1686.64 283.377 1685.06 286.408 1684.28 287.689C1683.5 288.965 1681.54 291.887 1679.92 294.179C1678.3 296.472 1675.09 300.313 1672.78 302.719C1670.47 305.12 1667.17 308.261 1665.43 309.688C1663.7 311.12 1661.15 313.055 1659.77 313.996C1658.38 314.936 1656.16 316.389 1654.83 317.224C1653.51 318.056 1650.95 319.47 1649.17 320.365C1647.38 321.255 1644.12 322.703 1641.92 323.576C1639.73 324.45 1636.05 325.709 1633.74 326.377C1631.43 327.04 1627.75 327.947 1625.55 328.396C1623.35 328.841 1619.48 329.4 1616.94 329.639C1614.4 329.878 1609.87 330.067 1606.87 330.055C1602.42 330.042 1601.29 330.16 1600.78 330.701C1600.21 331.297 1600.45 331.654 1603.09 334.19C1604.7 335.743 1606.64 337.532 1608.76 339.312H1649.9C1688.81 339.312 1691.04 339.354 1691.03 340.047C1691.02 340.45 1687.47 344.371 1683.14 348.758C1678.81 353.146 1672.63 359.427 1663.55 368.701L1648.01 368.697C1636.39 368.692 1631.95 368.55 1630.38 368.13C1629.22 367.823 1627.43 367.139 1626.39 366.618C1625.1 365.968 1618.64 359.842 1606.03 347.31C1595.87 337.217 1586.89 328.573 1586.08 328.106C1585.28 327.636 1582.16 326.436 1579.16 325.432C1576.16 324.429 1570.87 322.183 1567.4 320.44C1563.94 318.694 1559.42 316.137 1557.36 314.751C1555.31 313.366 1551.62 310.511 1549.18 308.408C1546.73 306.3 1543.52 303.185 1542.04 301.48C1540.56 299.772 1538.07 296.677 1536.51 294.599C1534.95 292.521 1532.69 289.12 1531.49 287.042C1530.29 284.964 1528.55 281.563 1527.63 279.485C1526.7 277.407 1525.4 274.103 1524.72 272.138C1524.04 270.173 1523.05 266.68 1522.5 264.371C1521.95 262.062 1521.26 258.661 1520.95 256.814C1520.59 254.639 1520.39 249.903 1520.4 243.379C1520.41 235.733 1520.59 232.291 1521.15 229.104C1521.56 226.795 1522.26 223.394 1522.73 221.547C1523.19 219.7 1524.14 216.488 1524.83 214.41C1525.54 212.332 1527.31 208.175 1528.78 205.173C1530.25 202.171 1532.53 198.107 1533.84 196.147C1535.14 194.182 1537.12 191.444 1538.23 190.059C1539.34 188.674 1542.3 185.537 1544.8 183.09C1547.3 180.638 1550.95 177.451 1552.92 176.007C1554.88 174.559 1558.28 172.321 1560.47 171.028C1562.67 169.735 1566.45 167.799 1568.87 166.729C1571.29 165.654 1574.69 164.285 1576.43 163.685C1578.16 163.084 1581.47 162.119 1583.78 161.539C1586.08 160.964 1589.67 160.196 1591.75 159.839ZM1604.56 165.754C1603.75 165.851 1601.86 166.128 1600.36 166.376C1598.86 166.619 1596.31 167.287 1594.69 167.854C1593.07 168.42 1590.53 169.609 1589.02 170.494C1587.52 171.385 1585.17 173.127 1583.8 174.365C1582.44 175.608 1580.19 178.136 1578.82 179.983C1577.45 181.83 1575.41 185.185 1574.28 187.435C1573.15 189.685 1571.49 193.749 1570.59 196.462C1569.69 199.174 1568.46 203.758 1567.88 206.643C1567.29 209.527 1566.53 214.065 1566.18 216.719C1565.84 219.372 1565.34 224.57 1565.06 228.264C1564.75 232.488 1564.66 239.894 1564.79 248.207C1564.95 257.632 1565.26 263.481 1565.87 268.569C1566.34 272.495 1567.21 278.07 1567.8 280.954C1568.4 283.839 1569.47 288.092 1570.18 290.401C1570.89 292.71 1572.27 296.392 1573.23 298.588C1574.2 300.783 1576.09 304.276 1577.44 306.355C1578.79 308.433 1581.26 311.456 1582.92 313.072C1584.59 314.688 1587.26 316.779 1588.85 317.715C1590.45 318.652 1592.89 319.836 1594.27 320.344C1595.66 320.856 1598.11 321.549 1599.73 321.889C1601.45 322.246 1604.94 322.506 1608.13 322.506C1611.36 322.506 1614.78 322.25 1616.52 321.88C1618.14 321.536 1620.78 320.743 1622.4 320.117C1624.02 319.496 1626.66 318.106 1628.28 317.04C1629.89 315.973 1632.59 313.651 1634.26 311.88C1635.94 310.112 1638 307.576 1638.85 306.25C1639.69 304.923 1641.19 302.135 1642.17 300.057C1643.16 297.979 1644.64 294.2 1645.48 291.66C1646.31 289.12 1647.54 284.305 1648.21 280.954C1648.88 277.604 1649.73 272.503 1650.09 269.619C1650.45 266.73 1650.97 259.836 1651.25 254.294C1651.63 246.464 1651.63 241.876 1651.23 233.722C1650.95 227.95 1650.45 221.052 1650.11 218.398C1649.77 215.745 1649.2 211.966 1648.84 210.001C1648.49 208.041 1647.74 204.543 1647.18 202.234C1646.63 199.925 1645.34 195.865 1644.32 193.208C1643.3 190.55 1641.67 186.961 1640.69 185.231C1639.71 183.497 1638.2 181.137 1637.33 179.983C1636.47 178.828 1634.92 177.027 1633.91 175.982C1632.89 174.936 1631.02 173.295 1629.75 172.333C1628.48 171.372 1626.02 169.923 1624.29 169.117C1622.56 168.311 1619.53 167.266 1617.57 166.796C1615.61 166.321 1612.21 165.855 1610.02 165.759C1607.82 165.662 1605.36 165.658 1604.56 165.754Z" fill="white"/>
<path d="M1382.34 142.03H1380.79L1385.28 129.817H1386.8L1391.29 142.03H1389.74L1386.09 131.749H1385.99L1382.34 142.03ZM1382.92 137.259H1389.17V138.571H1382.92V137.259ZM1394.67 129.817V142.03H1393.19V129.817H1394.67ZM1412.19 133.633H1410.71C1410.62 133.208 1410.47 132.834 1410.25 132.512C1410.03 132.19 1409.77 131.92 1409.46 131.701C1409.16 131.478 1408.82 131.312 1408.44 131.2C1408.07 131.089 1407.68 131.033 1407.27 131.033C1406.53 131.033 1405.86 131.22 1405.26 131.594C1404.67 131.968 1404.19 132.518 1403.84 133.246C1403.49 133.973 1403.31 134.866 1403.31 135.923C1403.31 136.981 1403.49 137.873 1403.84 138.601C1404.19 139.329 1404.67 139.879 1405.26 140.253C1405.86 140.627 1406.53 140.814 1407.27 140.814C1407.68 140.814 1408.07 140.758 1408.44 140.647C1408.82 140.535 1409.16 140.37 1409.46 140.152C1409.77 139.929 1410.03 139.657 1410.25 139.335C1410.47 139.009 1410.62 138.635 1410.71 138.213H1412.19C1412.08 138.838 1411.87 139.396 1411.58 139.889C1411.28 140.382 1410.92 140.802 1410.48 141.148C1410.04 141.489 1409.55 141.75 1409.01 141.929C1408.47 142.108 1407.89 142.197 1407.27 142.197C1406.23 142.197 1405.3 141.943 1404.49 141.434C1403.68 140.925 1403.04 140.201 1402.58 139.263C1402.11 138.325 1401.88 137.212 1401.88 135.923C1401.88 134.635 1402.11 133.522 1402.58 132.584C1403.04 131.645 1403.68 130.922 1404.49 130.413C1405.3 129.904 1406.23 129.65 1407.27 129.65C1407.89 129.65 1408.47 129.739 1409.01 129.918C1409.55 130.097 1410.04 130.359 1410.48 130.705C1410.92 131.047 1411.28 131.465 1411.58 131.958C1411.87 132.447 1412.08 133.005 1412.19 133.633ZM1424.88 135.923C1424.88 137.212 1424.65 138.325 1424.18 139.263C1423.72 140.201 1423.08 140.925 1422.27 141.434C1421.46 141.943 1420.53 142.197 1419.49 142.197C1418.45 142.197 1417.52 141.943 1416.71 141.434C1415.9 140.925 1415.26 140.201 1414.8 139.263C1414.33 138.325 1414.1 137.212 1414.1 135.923C1414.1 134.635 1414.33 133.522 1414.8 132.584C1415.26 131.645 1415.9 130.922 1416.71 130.413C1417.52 129.904 1418.45 129.65 1419.49 129.65C1420.53 129.65 1421.46 129.904 1422.27 130.413C1423.08 130.922 1423.72 131.645 1424.18 132.584C1424.65 133.522 1424.88 134.635 1424.88 135.923ZM1423.45 135.923C1423.45 134.866 1423.27 133.973 1422.92 133.246C1422.57 132.518 1422.09 131.968 1421.49 131.594C1420.9 131.22 1420.23 131.033 1419.49 131.033C1418.75 131.033 1418.08 131.22 1417.48 131.594C1416.88 131.968 1416.41 132.518 1416.06 133.246C1415.71 133.973 1415.53 134.866 1415.53 135.923C1415.53 136.981 1415.71 137.873 1416.06 138.601C1416.41 139.329 1416.88 139.879 1417.48 140.253C1418.08 140.627 1418.75 140.814 1419.49 140.814C1420.23 140.814 1420.9 140.627 1421.49 140.253C1422.09 139.879 1422.57 139.329 1422.92 138.601C1423.27 137.873 1423.45 136.981 1423.45 135.923ZM1437.05 129.817V142.03H1435.62L1428.97 132.441H1428.85V142.03H1427.37V129.817H1428.8L1435.48 139.43H1435.6V129.817H1437.05ZM1439.35 131.129V129.817H1448.51V131.129H1444.66V142.03H1443.19V131.129H1439.35ZM1450.79 142.03V129.817H1454.91C1455.87 129.817 1456.65 129.98 1457.26 130.306C1457.88 130.628 1458.33 131.071 1458.62 131.636C1458.92 132.2 1459.07 132.842 1459.07 133.562C1459.07 134.281 1458.92 134.92 1458.62 135.476C1458.33 136.033 1457.88 136.47 1457.27 136.788C1456.66 137.102 1455.88 137.259 1454.94 137.259H1451.6V135.923H1454.89C1455.54 135.923 1456.07 135.828 1456.47 135.637C1456.87 135.446 1457.16 135.176 1457.34 134.826C1457.52 134.472 1457.61 134.051 1457.61 133.562C1457.61 133.073 1457.52 132.645 1457.34 132.28C1457.15 131.914 1456.86 131.632 1456.46 131.433C1456.06 131.23 1455.53 131.129 1454.87 131.129H1452.27V142.03H1450.79ZM1456.54 136.544L1459.54 142.03H1457.82L1454.87 136.544H1456.54ZM1462.03 142.03H1460.48L1464.96 129.817H1466.49L1470.98 142.03H1469.43L1465.78 131.749H1465.68L1462.03 142.03ZM1462.6 137.259H1468.85V138.571H1462.6V137.259ZM1470.78 131.129V129.817H1479.94V131.129H1476.1V142.03H1474.62V131.129H1470.78ZM1481.3 142.03H1479.75L1484.23 129.817H1485.76L1490.25 142.03H1488.7L1485.05 131.749H1484.95L1481.3 142.03ZM1481.87 137.259H1488.12V138.571H1481.87V137.259ZM1495.92 142.03H1492.15V129.817H1496.08C1497.27 129.817 1498.28 130.061 1499.13 130.55C1499.97 131.035 1500.61 131.733 1501.06 132.643C1501.51 133.55 1501.74 134.635 1501.74 135.9C1501.74 137.172 1501.51 138.267 1501.06 139.185C1500.61 140.1 1499.95 140.804 1499.08 141.297C1498.21 141.786 1497.16 142.03 1495.92 142.03ZM1493.63 140.718H1495.82C1496.83 140.718 1497.67 140.523 1498.33 140.134C1499 139.744 1499.49 139.189 1499.82 138.47C1500.14 137.75 1500.31 136.893 1500.31 135.9C1500.31 134.914 1500.15 134.065 1499.82 133.353C1499.5 132.637 1499.02 132.089 1498.38 131.707C1497.74 131.321 1496.94 131.129 1495.99 131.129H1493.63V140.718ZM1514.52 135.923C1514.52 137.212 1514.29 138.325 1513.83 139.263C1513.36 140.201 1512.72 140.925 1511.91 141.434C1511.1 141.943 1510.17 142.197 1509.13 142.197C1508.09 142.197 1507.16 141.943 1506.35 141.434C1505.54 140.925 1504.9 140.201 1504.44 139.263C1503.97 138.325 1503.74 137.212 1503.74 135.923C1503.74 134.635 1503.97 133.522 1504.44 132.584C1504.9 131.645 1505.54 130.922 1506.35 130.413C1507.16 129.904 1508.09 129.65 1509.13 129.65C1510.17 129.65 1511.1 129.904 1511.91 130.413C1512.72 130.922 1513.36 131.645 1513.83 132.584C1514.29 133.522 1514.52 134.635 1514.52 135.923ZM1513.09 135.923C1513.09 134.866 1512.92 133.973 1512.56 133.246C1512.21 132.518 1511.74 131.968 1511.14 131.594C1510.54 131.22 1509.87 131.033 1509.13 131.033C1508.39 131.033 1507.72 131.22 1507.12 131.594C1506.53 131.968 1506.05 132.518 1505.7 133.246C1505.35 133.973 1505.17 134.866 1505.17 135.923C1505.17 136.981 1505.35 137.873 1505.7 138.601C1506.05 139.329 1506.53 139.879 1507.12 140.253C1507.72 140.627 1508.39 140.814 1509.13 140.814C1509.87 140.814 1510.54 140.627 1511.14 140.253C1511.74 139.879 1512.21 139.329 1512.56 138.601C1512.92 137.873 1513.09 136.981 1513.09 135.923Z" fill="white"/>
</svg>
